<svg xmlns="http://www.w3.org/2000/svg" xmlns:xlink="http://www.w3.org/1999/xlink" width="559" zoomAndPan="magnify" viewBox="0 0 419.25 419.249985" height="559" preserveAspectRatio="xMidYMid meet" version="1.0"><defs><g/><clipPath id="cbc76c02ad"><path d="M 0 0 L 418.5 0 L 418.5 418.5 L 0 418.5 Z M 0 0 " clip-rule="nonzero"/></clipPath><clipPath id="b097ac3fb5"><path d="M 0 0 L 418.222656 0 L 418.222656 418.222656 L 0 418.222656 Z M 0 0 " clip-rule="nonzero"/></clipPath><clipPath id="348a3e9951"><path d="M 1 0 L 418.222656 0 L 418.222656 417 L 1 417 Z M 1 0 " clip-rule="nonzero"/></clipPath><clipPath id="859522c6ba"><rect x="0" width="419" y="0" height="419"/></clipPath></defs><g clip-path="url(#cbc76c02ad)"><path fill="#ffffff" d="M 0 0 L 418.5 0 L 418.5 418.5 L 0 418.5 Z M 0 0 " fill-opacity="1" fill-rule="nonzero"/><g transform="matrix(1, 0, 0, 1, 0, 0)"><g clip-path="url(#859522c6ba)"><g clip-path="url(#b097ac3fb5)"><path fill="#ffffff" d="M 0 0 L 418.222656 0 L 418.222656 418.222656 L 0 418.222656 Z M 0 0 " fill-opacity="1" fill-rule="nonzero"/></g><g clip-path="url(#348a3e9951)"><path fill="#000000" d="M 209.101562 -0.140625 C 92.898438 0.25 0.0273438 94.730469 1.546875 210.921875 C 1.613281 216.761719 1.929688 222.585938 2.488281 228.394531 C 3.050781 234.207031 3.855469 239.984375 4.902344 245.726562 C 5.953125 251.46875 7.242188 257.160156 8.769531 262.792969 C 10.296875 268.425781 12.0625 273.988281 14.058594 279.472656 C 16.058594 284.957031 18.285156 290.347656 20.738281 295.644531 C 23.191406 300.945312 25.863281 306.128906 28.757812 311.199219 C 31.648438 316.273438 34.746094 321.210938 38.058594 326.023438 C 41.367188 330.832031 44.871094 335.492188 48.574219 340.007812 C 49.15625 340.71875 49.679688 341.472656 50.148438 342.261719 C 50.617188 343.054688 51.027344 343.875 51.371094 344.730469 C 51.71875 345.582031 52 346.453125 52.214844 347.347656 C 52.429688 348.242188 52.578125 349.148438 52.660156 350.066406 C 52.738281 350.980469 52.75 351.898438 52.695312 352.816406 C 52.636719 353.734375 52.511719 354.644531 52.320312 355.542969 C 52.125 356.441406 51.867188 357.324219 51.542969 358.183594 C 51.21875 359.042969 50.832031 359.875 50.382812 360.679688 L 32.4375 392.832031 C 27.464844 401.746094 35.570312 412.285156 45.460938 409.765625 L 106.234375 394.292969 C 108.351562 393.753906 110.5 393.597656 112.675781 393.820312 C 114.851562 394.042969 116.921875 394.632812 118.886719 395.59375 C 132.324219 402.121094 146.304688 407.136719 160.828125 410.640625 C 175.351562 414.148438 190.082031 416.0625 205.015625 416.382812 C 321.847656 419.023438 417.742188 325.671875 418.105469 208.8125 C 418.464844 93.230469 324.683594 -0.53125 209.101562 -0.140625 Z M 209.816406 390.769531 C 206.828125 390.769531 203.839844 390.695312 200.855469 390.550781 C 197.871094 390.402344 194.890625 390.183594 191.917969 389.890625 C 188.941406 389.597656 185.976562 389.234375 183.019531 388.792969 C 180.0625 388.355469 177.121094 387.84375 174.1875 387.261719 C 171.257812 386.679688 168.34375 386.023438 165.441406 385.296875 C 162.542969 384.570312 159.664062 383.773438 156.804688 382.90625 C 153.945312 382.039062 151.105469 381.101562 148.292969 380.09375 C 145.480469 379.089844 142.691406 378.011719 139.929688 376.871094 C 137.167969 375.726562 134.4375 374.515625 131.734375 373.238281 C 129.035156 371.960938 126.363281 370.617188 123.730469 369.207031 C 121.09375 367.796875 118.492188 366.324219 115.929688 364.789062 C 113.367188 363.253906 110.84375 361.652344 108.355469 359.992188 C 105.871094 358.332031 103.429688 356.613281 101.027344 354.832031 C 98.628906 353.050781 96.273438 351.214844 93.960938 349.316406 C 91.652344 347.421875 89.390625 345.46875 87.175781 343.464844 C 84.960938 341.457031 82.796875 339.394531 80.683594 337.28125 C 78.570312 335.167969 76.507812 333.003906 74.5 330.789062 C 72.496094 328.574219 70.542969 326.3125 68.648438 324.003906 C 66.75 321.691406 64.914062 319.335938 63.132812 316.9375 C 61.351562 314.535156 59.632812 312.09375 57.972656 309.609375 C 56.308594 307.121094 54.710938 304.597656 53.175781 302.035156 C 51.640625 299.472656 50.167969 296.871094 48.757812 294.234375 C 47.347656 291.601562 46.003906 288.929688 44.726562 286.230469 C 43.449219 283.527344 42.238281 280.796875 41.09375 278.035156 C 39.949219 275.273438 38.875 272.484375 37.867188 269.671875 C 36.863281 266.855469 35.925781 264.019531 35.058594 261.160156 C 34.1875 258.300781 33.390625 255.421875 32.667969 252.519531 C 31.941406 249.621094 31.285156 246.707031 30.703125 243.773438 C 30.117188 240.84375 29.609375 237.898438 29.167969 234.941406 C 28.730469 231.988281 28.367188 229.019531 28.074219 226.046875 C 27.78125 223.074219 27.558594 220.09375 27.414062 217.109375 C 27.265625 214.121094 27.191406 211.136719 27.191406 208.144531 C 27.191406 107.289062 108.957031 25.523438 209.816406 25.523438 C 310.285156 25.523438 391.804688 106.652344 392.4375 206.972656 C 393.070312 307.628906 310.480469 390.769531 209.816406 390.769531 Z M 209.816406 390.769531 " fill-opacity="1" fill-rule="nonzero"/></g><path fill="#000000" d="M 177.175781 119.359375 L 177.261719 119.527344 L 188.152344 141.128906 C 188.738281 142.292969 189.226562 143.492188 189.621094 144.734375 C 190.011719 145.976562 190.300781 147.238281 190.488281 148.527344 C 190.679688 149.8125 190.761719 151.109375 190.742188 152.410156 C 190.71875 153.710938 190.59375 155 190.367188 156.28125 C 190.136719 157.5625 189.804688 158.816406 189.375 160.042969 C 188.941406 161.269531 188.414062 162.457031 187.792969 163.597656 C 187.167969 164.742188 186.460938 165.824219 185.660156 166.855469 C 184.863281 167.882812 183.988281 168.839844 183.035156 169.726562 C 182.089844 170.605469 181.214844 171.554688 180.421875 172.574219 C 179.625 173.59375 178.917969 174.671875 178.292969 175.804688 C 177.671875 176.941406 177.144531 178.117188 176.710938 179.335938 C 176.277344 180.554688 175.945312 181.800781 175.710938 183.070312 C 175.476562 184.34375 175.347656 185.628906 175.320312 186.921875 C 175.292969 188.214844 175.371094 189.5 175.550781 190.78125 C 175.730469 192.0625 176.011719 193.320312 176.394531 194.554688 C 176.777344 195.792969 177.253906 196.988281 177.828125 198.148438 C 184.367188 211.277344 195.695312 229.375 212.984375 242.433594 C 213.949219 243.167969 214.960938 243.824219 216.023438 244.402344 C 217.082031 244.980469 218.183594 245.480469 219.316406 245.894531 C 220.453125 246.3125 221.613281 246.640625 222.800781 246.882812 C 223.984375 247.125 225.179688 247.277344 226.390625 247.339844 C 227.597656 247.402344 228.800781 247.375 230.007812 247.257812 C 231.210938 247.140625 232.398438 246.9375 233.570312 246.640625 C 234.746094 246.347656 235.890625 245.964844 237.003906 245.5 C 238.121094 245.035156 239.195312 244.488281 240.230469 243.859375 L 247.246094 239.589844 C 248.820312 238.632812 250.480469 237.867188 252.226562 237.289062 C 253.976562 236.710938 255.769531 236.335938 257.601562 236.167969 C 259.433594 236 261.265625 236.039062 263.089844 236.289062 C 264.914062 236.535156 266.6875 236.988281 268.40625 237.640625 L 296.289062 248.242188 C 297.03125 248.523438 297.753906 248.839844 298.464844 249.195312 C 299.171875 249.546875 299.863281 249.933594 300.535156 250.355469 C 301.207031 250.773438 301.855469 251.226562 302.484375 251.710938 C 303.109375 252.195312 303.710938 252.710938 304.289062 253.253906 C 304.863281 253.796875 305.414062 254.367188 305.933594 254.964844 C 306.453125 255.5625 306.941406 256.183594 307.402344 256.828125 C 307.863281 257.472656 308.289062 258.140625 308.683594 258.828125 C 309.074219 259.515625 309.433594 260.222656 309.757812 260.945312 C 310.085938 261.667969 310.371094 262.402344 310.625 263.152344 C 310.878906 263.90625 311.089844 264.667969 311.269531 265.4375 C 311.445312 266.210938 311.585938 266.988281 311.6875 267.777344 C 311.785156 268.5625 311.847656 269.351562 311.871094 270.140625 C 311.894531 270.933594 311.878906 271.726562 311.824219 272.515625 C 311.769531 273.304688 311.679688 274.089844 311.546875 274.871094 C 311.414062 275.652344 311.246094 276.425781 311.039062 277.191406 C 310.828125 277.957031 310.585938 278.707031 310.304688 279.449219 C 309.976562 280.300781 309.605469 281.132812 309.1875 281.941406 L 301.464844 296.917969 C 300.835938 298.128906 300.113281 299.277344 299.296875 300.367188 C 298.476562 301.457031 297.570312 302.46875 296.578125 303.40625 C 295.589844 304.339844 294.527344 305.1875 293.390625 305.945312 C 292.257812 306.699219 291.070312 307.355469 289.824219 307.914062 C 288.578125 308.46875 287.296875 308.914062 285.976562 309.253906 C 284.65625 309.59375 283.316406 309.820312 281.957031 309.933594 C 280.601562 310.042969 279.242188 310.042969 277.882812 309.925781 C 276.523438 309.808594 275.1875 309.578125 273.867188 309.234375 C 230.078125 297.90625 125.714844 258.527344 117.304688 139.445312 C 117.222656 138.269531 117.226562 137.09375 117.3125 135.917969 C 117.402344 134.742188 117.574219 133.582031 117.832031 132.429688 C 118.089844 131.28125 118.433594 130.15625 118.855469 129.058594 C 119.277344 127.957031 119.777344 126.894531 120.355469 125.867188 C 120.933594 124.839844 121.582031 123.859375 122.304688 122.925781 C 123.023438 121.996094 123.808594 121.121094 124.65625 120.304688 C 125.507812 119.484375 126.410156 118.734375 127.367188 118.050781 C 128.328125 117.363281 129.328125 116.75 130.378906 116.210938 L 144.597656 108.90625 C 145.304688 108.546875 146.023438 108.21875 146.761719 107.925781 C 147.496094 107.636719 148.246094 107.378906 149.007812 107.164062 C 149.769531 106.945312 150.542969 106.765625 151.320312 106.621094 C 152.101562 106.480469 152.886719 106.375 153.675781 106.3125 C 154.464844 106.246094 155.253906 106.21875 156.046875 106.234375 C 156.839844 106.246094 157.628906 106.296875 158.417969 106.386719 C 159.203125 106.476562 159.984375 106.605469 160.757812 106.773438 C 161.535156 106.941406 162.296875 107.144531 163.054688 107.386719 C 163.808594 107.628906 164.546875 107.90625 165.277344 108.222656 C 166.003906 108.535156 166.710938 108.886719 167.40625 109.269531 C 168.097656 109.65625 168.769531 110.074219 169.421875 110.523438 C 170.074219 110.972656 170.703125 111.457031 171.304688 111.96875 C 171.910156 112.480469 172.488281 113.023438 173.039062 113.589844 C 173.589844 114.160156 174.113281 114.753906 174.605469 115.375 C 175.097656 115.996094 175.558594 116.640625 175.988281 117.304688 C 176.417969 117.96875 176.816406 118.65625 177.175781 119.359375 Z M 177.175781 119.359375 " fill-opacity="1" fill-rule="nonzero"/><g fill="#000000" fill-opacity="1"><g transform="translate(145.212377, 214.861877)"><g><path d="M 2.65625 -4.375 C 2.875 -4.6875 3.210938 -5.097656 3.671875 -5.609375 L 6.421875 -8.53125 L 7.96875 -8.53125 L 4.5 -4.90625 L 8.203125 0 L 6.640625 0 L 3.625 -4.03125 L 2.65625 -3.1875 L 2.65625 0 L 1.375 0 L 1.375 -12.125 L 2.65625 -12.125 L 2.65625 -5.6875 C 2.65625 -5.40625 2.632812 -4.96875 2.59375 -4.375 Z M 2.65625 -4.375 "/></g></g></g></g></g></g></svg>